<?xml version="1.0" encoding="UTF-8"?>
<svg width="865px" height="162px" viewBox="0 0 865 162" version="1.1" xmlns="http://www.w3.org/2000/svg" xmlns:xlink="http://www.w3.org/1999/xlink">
    <!-- Generator: Sketch 55.2 (78181) - https://sketchapp.com -->
    <title>BuildSupply</title>
    <desc>Created with Sketch.</desc>
    <g id="BuildSupply" stroke="none" stroke-width="1" fill="none" fill-rule="evenodd">
        <path d="M33.63,43.2 L32.57,43.2 C32.716,43.188 32.864,43.188 33.01,43.2 L33.18,43.2 C33.33,43.189 33.48,43.189 33.63,43.2" id="Fill-1" fill="#E46F2B"></path>
        <path d="M159.07,113.81 L168.24,113.81 C174.947,113.81 179.87,112.493 183.01,109.86 C186.249,107.208 188.092,103.216 188.01,99.03 C188.062,94.939 186.305,91.035 183.21,88.36 C180.11,85.514 174.57,84.09 166.59,84.09 L159.08,84.09 L159.07,113.81 Z M159.07,71.65 L163.72,71.65 C169.24,71.65 173.283,70.43 175.85,67.99 C178.416,65.55 179.7,61.953 179.7,57.2 C179.7,52.573 178.383,49.06 175.75,46.66 C173.117,44.26 169.297,43.06 164.29,43.06 L159.07,43.06 L159.07,71.65 Z M144.23,127.75 L144.23,29.42 L159,29.42 C164.286,29.285 169.569,29.799 174.73,30.95 C178.43,31.84 181.861,33.61 184.73,36.11 C187.564,38.722 189.802,41.915 191.29,45.47 C192.907,49.075 193.751,52.979 193.77,56.93 C193.85,63.796 190.888,70.345 185.68,74.82 C190.717,76.48 195.054,79.779 198,84.19 C201.095,88.725 202.7,94.111 202.59,99.6 C202.73,106.953 199.772,114.025 194.44,119.09 C191.386,122.226 187.609,124.564 183.44,125.9 C177.962,127.251 172.331,127.873 166.69,127.75 L144.23,127.75 L144.23,127.75 Z" id="Fill-2" fill="#183344"></path>
        <path d="M159.07,113.81 L168.24,113.81 C174.947,113.81 179.87,112.493 183.01,109.86 C186.249,107.208 188.092,103.216 188.01,99.03 C188.062,94.939 186.305,91.035 183.21,88.36 C180.11,85.514 174.57,84.09 166.59,84.09 L159.08,84.09 L159.07,113.81 Z M159.07,71.65 L163.72,71.65 C169.24,71.65 173.283,70.43 175.85,67.99 C178.416,65.55 179.7,61.953 179.7,57.2 C179.7,52.573 178.383,49.06 175.75,46.66 C173.117,44.26 169.297,43.06 164.29,43.06 L159.07,43.06 L159.07,71.65 Z M144.23,127.75 L144.23,29.42 L159,29.42 C164.286,29.285 169.569,29.799 174.73,30.95 C178.43,31.84 181.861,33.61 184.73,36.11 C187.564,38.722 189.802,41.915 191.29,45.47 C192.907,49.075 193.751,52.979 193.77,56.93 C193.85,63.796 190.888,70.345 185.68,74.82 C190.717,76.48 195.054,79.779 198,84.19 C201.095,88.725 202.7,94.111 202.59,99.6 C202.73,106.953 199.772,114.025 194.44,119.09 C191.386,122.226 187.609,124.564 183.44,125.9 C177.962,127.251 172.331,127.873 166.69,127.75 L144.23,127.75 Z" id="Stroke-3" stroke="#183344"></path>
        <path d="M232.94,65.72 L232.94,101.36 C232.94,111.634 236.993,116.77 245.1,116.77 C253.207,116.77 257.263,111.634 257.27,101.36 L257.27,65.72 L271.6,65.72 L271.6,101.64 C271.688,105.999 271.063,110.343 269.75,114.5 C268.453,117.879 266.328,120.877 263.57,123.22 C258.73,127.42 252.573,129.52 245.1,129.52 C237.626,129.52 231.493,127.42 226.7,123.22 C223.909,120.881 221.744,117.885 220.4,114.5 C219.213,111.613 218.62,107.326 218.62,101.64 L218.62,65.72 L232.94,65.72" id="Fill-4" fill="#183344"></path>
        <path d="M232.94,65.72 L232.94,101.36 C232.94,111.634 236.993,116.77 245.1,116.77 C253.207,116.77 257.263,111.634 257.27,101.36 L257.27,65.72 L271.6,65.72 L271.6,101.64 C271.688,105.999 271.063,110.343 269.75,114.5 C268.453,117.879 266.328,120.877 263.57,123.22 C258.73,127.42 252.573,129.52 245.1,129.52 C237.626,129.52 231.493,127.42 226.7,123.22 C223.909,120.881 221.744,117.885 220.4,114.5 C219.213,111.613 218.62,107.326 218.62,101.64 L218.62,65.72 L232.94,65.72 Z" id="Stroke-5" stroke="#183344"></path>
        <path d="M289.69,127.72 L304,127.72 L304,65.72 L289.69,65.72 L289.69,127.72 Z M287.52,39.93 C287.585,34.832 291.722,30.727 296.82,30.7 C299.311,30.658 301.707,31.65 303.44,33.44 C305.234,35.144 306.228,37.525 306.18,40 C306.222,42.491 305.23,44.888 303.44,46.62 C301.735,48.414 299.354,49.409 296.88,49.36 C291.716,49.366 287.525,45.184 287.52,40.02 C287.52,39.99 287.52,39.96 287.52,39.93 L287.52,39.93 Z" id="Fill-6" fill="#183344"></path>
        <path d="M289.69,127.72 L304,127.72 L304,65.72 L289.69,65.72 L289.69,127.72 Z M287.52,39.93 C287.585,34.832 291.722,30.727 296.82,30.7 C299.311,30.658 301.707,31.65 303.44,33.44 C305.234,35.144 306.228,37.525 306.18,40 C306.222,42.491 305.23,44.888 303.44,46.62 C301.735,48.414 299.354,49.409 296.88,49.36 C291.716,49.366 287.525,45.184 287.52,40.02 C287.52,39.99 287.52,39.96 287.52,39.93 Z" id="Stroke-7" stroke="#183344"></path>
        <polygon id="Fill-8" fill="#183344" points="322.16 127.75 336.49 127.75 336.49 20.19 322.16 20.19"></polygon>
        <polygon id="Stroke-9" stroke="#183344" points="322.16 127.75 336.49 127.75 336.49 20.19 322.16 20.19"></polygon>
        <path d="M366.36,96.55 C366.36,102.497 367.953,107.337 371.14,111.07 C374.178,114.743 378.725,116.831 383.49,116.74 C388.378,116.918 393.092,114.909 396.35,111.26 C399.617,107.48 401.25,102.684 401.25,96.87 C401.25,91.057 399.617,86.26 396.35,82.48 C393.15,78.815 388.473,76.781 383.61,76.94 C378.862,76.861 374.329,78.916 371.26,82.54 C367.95,86.439 366.204,91.428 366.36,96.54 L366.36,96.55 Z M400.36,20.19 L414.75,20.19 L414.75,127.75 L400.36,127.75 L400.36,121.25 C394.713,126.77 388.323,129.53 381.19,129.53 C373.114,129.712 365.373,126.306 360.05,120.23 C354.49,113.903 351.71,106.007 351.71,96.54 C351.71,87.287 354.49,79.56 360.05,73.36 C365.232,67.271 372.876,63.835 380.87,64 C388.13,64 394.626,66.973 400.36,72.92 L400.36,20.19 L400.36,20.19 Z" id="Fill-10" fill="#183344"></path>
        <path d="M366.36,96.55 C366.36,102.497 367.953,107.337 371.14,111.07 C374.178,114.743 378.725,116.831 383.49,116.74 C388.378,116.918 393.092,114.909 396.35,111.26 C399.617,107.48 401.25,102.684 401.25,96.87 C401.25,91.057 399.617,86.26 396.35,82.48 C393.15,78.815 388.473,76.781 383.61,76.94 C378.862,76.861 374.329,78.916 371.26,82.54 C367.95,86.439 366.204,91.428 366.36,96.54 L366.36,96.55 Z M400.36,20.19 L414.75,20.19 L414.75,127.75 L400.36,127.75 L400.36,121.25 C394.713,126.77 388.323,129.53 381.19,129.53 C373.114,129.712 365.373,126.306 360.05,120.23 C354.49,113.903 351.71,106.007 351.71,96.54 C351.71,87.287 354.49,79.56 360.05,73.36 C365.232,67.271 372.876,63.835 380.87,64 C388.13,64 394.626,66.973 400.36,72.92 L400.36,20.19 Z" id="Stroke-11" stroke="#183344"></path>
        <path d="M491.18,44.07 L479.18,51.2 C476.926,47.293 474.784,44.747 472.75,43.56 C470.261,42.12 467.412,41.426 464.54,41.56 C460.809,41.426 457.16,42.672 454.29,45.06 C451.663,47.159 450.156,50.357 450.21,53.72 C450.21,58.52 453.777,62.383 460.91,65.31 L470.72,69.31 C478.72,72.537 484.557,76.473 488.23,81.12 C491.904,85.767 493.75,91.467 493.77,98.22 C493.77,107.26 490.77,114.733 484.77,120.64 C478.77,126.547 471.234,129.52 462.16,129.56 C453.626,129.56 446.58,127.033 441.02,121.98 C435.46,116.927 432.043,109.816 430.77,100.65 L445.77,97.34 C446.437,103.113 447.626,107.113 449.34,109.34 C452.393,113.587 456.85,115.71 462.71,115.71 C467.034,115.834 471.212,114.148 474.24,111.06 C477.311,107.923 478.965,103.667 478.82,99.28 C478.837,97.498 478.568,95.726 478.02,94.03 C477.479,92.423 476.638,90.933 475.54,89.64 C474.277,88.182 472.808,86.915 471.18,85.88 C469.156,84.587 467.025,83.47 464.81,82.54 L455.32,78.59 C441.86,72.903 435.13,64.57 435.13,53.59 C435.016,46.452 438.128,39.644 443.6,35.06 C449.247,30.053 456.273,27.5499012 464.68,27.5499012 C475.973,27.523 484.807,33.03 491.18,44.07" id="Fill-12" fill="#183344"></path>
        <path d="M491.18,44.07 L479.18,51.2 C476.926,47.293 474.784,44.747 472.75,43.56 C470.261,42.12 467.412,41.426 464.54,41.56 C460.809,41.426 457.16,42.672 454.29,45.06 C451.663,47.159 450.156,50.357 450.21,53.72 C450.21,58.52 453.777,62.383 460.91,65.31 L470.72,69.31 C478.72,72.537 484.557,76.473 488.23,81.12 C491.904,85.767 493.75,91.467 493.77,98.22 C493.77,107.26 490.77,114.733 484.77,120.64 C478.77,126.547 471.234,129.52 462.16,129.56 C453.626,129.56 446.58,127.033 441.02,121.98 C435.46,116.927 432.043,109.816 430.77,100.65 L445.77,97.34 C446.437,103.113 447.626,107.113 449.34,109.34 C452.393,113.587 456.85,115.71 462.71,115.71 C467.034,115.834 471.212,114.148 474.24,111.06 C477.311,107.923 478.965,103.667 478.82,99.28 C478.837,97.498 478.568,95.726 478.02,94.03 C477.479,92.423 476.638,90.933 475.54,89.64 C474.277,88.182 472.808,86.915 471.18,85.88 C469.156,84.587 467.025,83.47 464.81,82.54 L455.32,78.59 C441.86,72.903 435.13,64.57 435.13,53.59 C435.016,46.452 438.128,39.644 443.6,35.06 C449.247,30.053 456.273,27.5499012 464.68,27.5499012 C475.973,27.523 484.807,33.03 491.18,44.07 Z" id="Stroke-13" stroke="#183344"></path>
        <path d="M523.21,65.72 L523.21,101.36 C523.21,111.634 527.263,116.77 535.37,116.77 C543.477,116.77 547.534,111.634 547.54,101.36 L547.54,65.72 L561.87,65.72 L561.87,101.64 C561.952,106 561.32,110.344 560,114.5 C558.703,117.879 556.578,120.877 553.82,123.22 C548.98,127.42 542.824,129.52 535.35,129.52 C527.876,129.52 521.744,127.42 516.95,123.22 C514.159,120.882 511.994,117.885 510.65,114.5 C509.463,111.613 508.87,107.326 508.87,101.64 L508.87,65.72 L523.21,65.72" id="Fill-14" fill="#183344"></path>
        <path d="M523.21,65.72 L523.21,101.36 C523.21,111.634 527.263,116.77 535.37,116.77 C543.477,116.77 547.534,111.634 547.54,101.36 L547.54,65.72 L561.87,65.72 L561.87,101.64 C561.952,106 561.32,110.344 560,114.5 C558.703,117.879 556.578,120.877 553.82,123.22 C548.98,127.42 542.824,129.52 535.35,129.52 C527.876,129.52 521.744,127.42 516.95,123.22 C514.159,120.882 511.994,117.885 510.65,114.5 C509.463,111.613 508.87,107.326 508.87,101.64 L508.87,65.72 L523.21,65.72 Z" id="Stroke-15" stroke="#183344"></path>
        <path d="M628.35,97.12 C628.35,91.173 626.737,86.333 623.51,82.6 C620.472,78.927 615.925,76.839 611.16,76.93 C606.295,76.745 601.6,78.735 598.35,82.36 C595.083,86.014 593.45,90.81 593.45,96.75 C593.45,102.563 595.083,107.36 598.35,111.14 C601.54,114.819 606.224,116.856 611.09,116.68 C615.827,116.785 620.352,114.724 623.38,111.08 C626.735,107.214 628.509,102.226 628.35,97.11 L628.35,97.12 Z M594.28,161.5 L579.95,161.5 L579.95,65.72 L594.28,65.72 L594.28,72.47 C599.926,66.823 606.336,64 613.51,64 C621.598,63.8 629.344,67.261 634.59,73.42 C640.197,79.666 643,87.543 643,97.05 C643,106.35 640.22,114.097 634.66,120.29 C629.417,126.322 621.76,129.706 613.77,129.52 C606.51,129.52 600.013,126.613 594.28,120.8 L594.28,161.5 L594.28,161.5 Z" id="Fill-16" fill="#183344"></path>
        <path d="M628.35,97.12 C628.35,91.173 626.737,86.333 623.51,82.6 C620.472,78.927 615.925,76.839 611.16,76.93 C606.295,76.745 601.6,78.735 598.35,82.36 C595.083,86.014 593.45,90.81 593.45,96.75 C593.45,102.563 595.083,107.36 598.35,111.14 C601.54,114.819 606.224,116.856 611.09,116.68 C615.827,116.785 620.352,114.724 623.38,111.08 C626.735,107.214 628.509,102.226 628.35,97.11 L628.35,97.12 Z M594.28,161.5 L579.95,161.5 L579.95,65.72 L594.28,65.72 L594.28,72.47 C599.926,66.823 606.336,64 613.51,64 C621.598,63.8 629.344,67.261 634.59,73.42 C640.197,79.666 643,87.543 643,97.05 C643,106.35 640.22,114.097 634.66,120.29 C629.417,126.322 621.76,129.706 613.77,129.52 C606.51,129.52 600.013,126.613 594.28,120.8 L594.28,161.5 Z" id="Stroke-17" stroke="#183344"></path>
        <path d="M706.55,97.12 C706.55,91.173 704.937,86.333 701.71,82.6 C698.672,78.927 694.125,76.839 689.36,76.93 C684.499,76.748 679.808,78.738 676.56,82.36 C673.293,86.014 671.66,90.81 671.66,96.75 C671.66,102.563 673.293,107.36 676.56,111.14 C679.75,114.819 684.434,116.856 689.3,116.68 C694.037,116.785 698.562,114.724 701.59,111.08 C704.941,107.213 706.712,102.225 706.55,97.11 L706.55,97.12 Z M672.48,161.5 L658.15,161.5 L658.15,65.72 L672.48,65.72 L672.48,72.47 C678.126,66.823 684.537,64 691.71,64 C699.797,63.8 707.543,67.261 712.791,73.42 C718.397,79.66 721.2,87.537 721.2,97.05 C721.2,106.35 718.42,114.097 712.86,120.29 C707.626,126.318 699.981,129.704 692,129.53 C684.74,129.53 678.244,126.623 672.51,120.81 L672.48,161.5 L672.48,161.5 Z" id="Fill-19" fill="#183344"></path>
        <path d="M706.55,97.12 C706.55,91.173 704.937,86.333 701.71,82.6 C698.672,78.927 694.125,76.839 689.36,76.93 C684.499,76.748 679.808,78.738 676.56,82.36 C673.293,86.014 671.66,90.81 671.66,96.75 C671.66,102.563 673.293,107.36 676.56,111.14 C679.75,114.819 684.434,116.856 689.3,116.68 C694.037,116.785 698.562,114.724 701.59,111.08 C704.941,107.213 706.712,102.225 706.55,97.11 L706.55,97.12 Z M672.48,161.5 L658.15,161.5 L658.15,65.72 L672.48,65.72 L672.48,72.47 C678.126,66.823 684.537,64 691.71,64 C699.797,63.8 707.543,67.261 712.791,73.42 C718.397,79.66 721.2,87.537 721.2,97.05 C721.2,106.35 718.42,114.097 712.86,120.29 C707.626,126.318 699.981,129.704 692,129.53 C684.74,129.53 678.244,126.623 672.51,120.81 L672.48,161.5 Z" id="Stroke-20" stroke="#183344"></path>
        <polygon id="Fill-22" fill="#183344" points="736.35 127.75 750.68 127.75 750.68 20.19 736.35 20.19"></polygon>
        <polygon id="Stroke-23" stroke="#183344" points="736.35 127.75 750.68 127.75 750.68 20.19 736.35 20.19"></polygon>
        <polyline id="Fill-24" fill="#183344" points="789.53 116.22 761.64 65.72 778.26 65.72 797.26 101.38 814.96 65.72 831.13 65.72 781.7 161.5 765.33 161.5 789.53 116.22"></polyline>
        <polygon id="Stroke-25" stroke="#183344" points="789.53 116.22 761.64 65.72 778.26 65.72 797.26 101.38 814.96 65.72 831.13 65.72 781.7 161.5 765.33 161.5"></polygon>
        <path d="M108.72,63.85 L108.72,118.85 C108.72,123.776 104.727,127.77 99.8,127.77 L11.69,127.77 C6.764,127.77 2.77,123.776 2.77,118.85 L2.77,30.75 C2.77,25.824 6.764,21.83 11.69,21.83 L66.69,21.83 L45.15,43.2 L33.63,43.2 C33.477,43.189 33.323,43.189 33.17,43.2 L33,43.2 C32.853,43.188 32.707,43.188 32.56,43.2 C27.841,43.465 24.152,47.373 24.16,52.1 L24.16,97.46 C24.182,102.378 28.172,106.355 33.09,106.36 L78.41,106.36 C83.294,106.36 87.27,102.434 87.33,97.55 L87.33,85.36 L108.72,63.85" id="Fill-27" fill="#E46F2B"></path>
        <g id="Group-31" transform="translate(66.000000, 0.000000)">
            <polyline id="Fill-28" fill="#268CA9" points="64.16 0.79 64.15 5.9 64.16 5.89 64.11 42.3 42.7 63.88 42.7 58 42.69 27.32 42.69 21.89 42.75 21.83 64.16 0.43 64.16 0.79"></polyline>
            <polyline id="Fill-30" fill="#183344" points="64.16 0.36 64.16 0.43 42.75 21.83 37.28 21.83 6.61 21.82 0.74 21.82 22.31 0.41 58.72 0.36 58.7 0.37 63.81 0.36 64.16 0.36"></polyline>
        </g>
        <polyline id="Fill-32" fill="#151514" points="108.75 21.83 108.69 21.89 108.69 21.83 108.75 21.83"></polyline>
        <polyline id="Fill-33" fill="#1B1A19" points="840.21 63.86 836.73 63.86 836.73 50.36 832.27 50.36 832.27 47.46 844.67 47.46 844.67 50.36 840.21 50.36 840.21 63.86"></polyline>
        <path d="M854.15,63.86 L850.15,50.98 L850.05,50.98 C850.19,53.6 850.26,55.347 850.26,56.22 L850.26,63.86 L847.2,63.86 L847.2,47.44 L851.94,47.44 L855.83,60 L855.9,60 L860,47.44 L864.74,47.44 L864.74,63.86 L861.49,63.86 L861.49,56.09 C861.49,55.723 861.49,55.3 861.49,54.82 C861.49,54.34 861.541,53.066 861.64,51 L861.541,51 L857.34,63.86 L854.15,63.86" id="Fill-34" fill="#1B1A19"></path>
    </g>
</svg>