<?xml version="1.0" encoding="UTF-8"?>
<svg width="18px" height="20px" viewBox="0 0 18 20" version="1.1" xmlns="http://www.w3.org/2000/svg" xmlns:xlink="http://www.w3.org/1999/xlink">
    <!-- Generator: Sketch 55.2 (78181) - https://sketchapp.com -->
    <title>Shape</title>
    <desc>Created with Sketch.</desc>
    <g id="Latest-Screens" stroke="none" stroke-width="1" fill="none" fill-rule="evenodd" opacity="0.600000024">
        <g id="Raise-Delivery-Request" transform="translate(-751.000000, -770.000000)" fill="#000000">
            <g id="Group-38" transform="translate(150.000000, 167.000000)">
                <g id="Group-23-Copy-5" transform="translate(0.000000, 562.000000)">
                    <g id="Group-13-Copy-2">
                        <path d="M607,50 L605,50 L605,52 L607,52 L607,50 L607,50 Z M611,50 L609,50 L609,52 L611,52 L611,50 L611,50 Z M615,50 L613,50 L613,52 L615,52 L615,50 L615,50 Z M617,43 L616,43 L616,41 L614,41 L614,43 L606,43 L606,41 L604,41 L604,43 L603,43 C601.89,43 601.01,43.9 601.01,45 L601,59 C601,60.1 601.89,61 603,61 L617,61 C618.1,61 619,60.1 619,59 L619,45 C619,43.9 618.1,43 617,43 L617,43 Z M617,59 L603,59 L603,48 L617,48 L617,59 L617,59 Z" id="Shape"></path>
                    </g>
                </g>
            </g>
        </g>
    </g>
</svg>