<?xml version="1.0" encoding="UTF-8"?>
<svg width="24px" height="24px" viewBox="0 0 24 24" version="1.1" xmlns="http://www.w3.org/2000/svg" xmlns:xlink="http://www.w3.org/1999/xlink">
    <!-- Generator: Sketch 55.2 (78181) - https://sketchapp.com -->
    <title>Fill 70</title>
    <desc>Created with Sketch.</desc>
    <g id="Latest-Screens" stroke="none" stroke-width="1" fill="none" fill-rule="evenodd">
        <g id="Home-Page_search" transform="translate(-1258.000000, -39.000000)" fill="#B2B2B2">
            <g id="Group-34">
                <g id="Header-content" transform="translate(150.000000, 26.000000)">
                    <g id="Group-3" transform="translate(1100.000000, 5.000000)">
                        <path d="M15.2,27.2 C13.88,27.2 12.812,28.2806 12.812,29.6 C12.812,30.9206 13.88,32 15.2,32 C16.52,32 17.6,30.9206 17.6,29.6 C17.6,28.2806 16.52,27.2 15.2,27.2 L15.2,27.2 Z M8,8 L8,10.4 L10.4,10.4 L14.72,19.5086 L13.1,22.4486 C12.908,22.784 12.8,23.18 12.8,23.6 C12.8,24.9206 13.88,26 15.2,26 L29.6,26 L29.6,23.6 L15.704,23.6 C15.536,23.6 15.404,23.468 15.404,23.3 L15.44,23.156 L16.52,21.2 L25.46,21.2 C26.36,21.2 27.152,20.7086 27.56,19.9646 L31.856,12.1766 C31.952,12.0086 32,11.804 32,11.6 C32,10.94 31.46,10.4 30.8,10.4 L13.052,10.4 L11.924,8 L8,8 L8,8 Z M27.2,27.2 C25.88,27.2 24.812,28.2806 24.812,29.6 C24.812,30.9206 25.88,32 27.2,32 C28.52,32 29.6,30.9206 29.6,29.6 C29.6,28.2806 28.52,27.2 27.2,27.2 L27.2,27.2 Z" id="Fill-70"></path>
                    </g>
                </g>
            </g>
        </g>
    </g>
</svg>