<?xml version="1.0" encoding="UTF-8"?>
<svg width="18px" height="18px" viewBox="0 0 18 18" version="1.1" xmlns="http://www.w3.org/2000/svg" xmlns:xlink="http://www.w3.org/1999/xlink">
    <!-- Generator: Sketch 55.2 (78181) - https://sketchapp.com -->
    <title>Path</title>
    <desc>Created with Sketch.</desc>
    <g id="Latest-Screens" stroke="none" stroke-width="1" fill="none" fill-rule="evenodd">
        <g id="Sent-for-approval" transform="translate(-932.000000, -133.000000)" fill="#B2B2B2">
            <g id="Group-11" transform="translate(150.000000, 120.000000)">
                <g id="Group-2" transform="translate(714.000000, 0.000000)">
                    <g id="Group-4" transform="translate(0.000000, 10.000000)">
                        <g id="Group-24">
                            <path d="M74.8363196,11.5056715 C75.0269408,11.7112299 75.1315956,11.9797521 75.1315956,12.2575336 L75.1315956,20.4428304 C75.1315956,20.9354482 75.7314917,21.1854516 76.0865704,20.8391321 L78.3908441,18.2224298 C78.6992019,17.8557581 78.8692659,17.6742556 78.8692659,17.3113062 L78.8692659,12.2593855 C78.8692659,11.9816039 78.9757895,11.7130818 79.1645419,11.5075049 L85.776462,4.39816721 C86.2717034,3.86482661 85.8904797,3 85.1578776,3 L68.8429465,3 C68.1103632,3 67.7272519,3.86297473 68.2243621,4.39816721 L74.8363196,11.5056715 Z" id="Path"></path>
                        </g>
                    </g>
                </g>
            </g>
        </g>
    </g>
</svg>