<?xml version="1.0" encoding="UTF-8"?>
<svg width="18px" height="18px" viewBox="0 0 18 18" version="1.1" xmlns="http://www.w3.org/2000/svg" xmlns:xlink="http://www.w3.org/1999/xlink">
    <!-- Generator: Sketch 55.2 (78181) - https://sketchapp.com -->
    <title>Shape</title>
    <desc>Created with Sketch.</desc>
    <g id="Latest-Screens" stroke="none" stroke-width="1" fill="none" fill-rule="evenodd">
        <g id="Order-Status_Raise-Delivery-Request" transform="translate(-153.000000, -1824.000000)" fill="#1896BA" fill-rule="nonzero">
            <g id="Group-5" transform="translate(150.000000, 1821.000000)">
                <g id="Group-6">
                    <g id="Group-13-Copy">
                        <g id="Group-9">
                            <path d="M11.8797046,3.00081793 C6.90955247,3.06733967 2.9346829,7.15079619 3.00081334,12.121144 C3.06733508,17.0893397 7.15040029,21.0653831 12.1203568,20.9992527 C17.0895307,20.9323397 21.0651829,16.8488831 20.9990525,11.8789266 C20.9325307,6.91033967 16.8492699,2.93449184 11.8797046,3.00081793 Z M11.8530959,17.4782962 L11.8034003,17.4775136 C11.038009,17.4548179 10.4984003,16.8909484 10.5201177,16.1369049 C10.5414438,15.3957744 11.0941612,14.857731 11.8343133,14.857731 L11.8787264,14.8585136 C12.6654438,14.8817962 13.1989873,15.4399918 13.1768786,16.2157527 C13.1549655,16.9590353 12.6108568,17.4782962 11.8530959,17.4782962 Z M15.0725525,11.0884918 C14.8925525,11.3442092 14.4967481,11.6617527 13.9980307,12.0503179 L13.4488351,12.4294918 C13.1473351,12.6638831 12.9653786,12.8843831 12.8970959,13.1013614 C12.8432916,13.2721658 12.8168786,13.3173614 12.8121829,13.6648397 L12.8114003,13.7530788 L10.7144003,13.7530788 L10.7204655,13.5756223 C10.7460959,12.846231 10.7640959,12.4171658 11.0663786,12.062644 C11.5406394,11.5058179 12.5867916,10.8321875 12.6312046,10.8036223 C12.7810742,10.690731 12.9074655,10.5621875 13.0015742,10.4248397 C13.2216829,10.1213831 13.3191177,9.88249184 13.3191177,9.64770923 C13.3191177,9.32194836 13.2224655,9.02064401 13.0313133,8.75240488 C12.8475959,8.49355706 12.4985525,8.3624701 11.9937699,8.3624701 C11.4930959,8.3624701 11.1503133,8.52133967 10.9452699,8.84729619 C10.7343568,9.18244836 10.6277264,9.53442662 10.6277264,9.89403532 L10.6277264,9.98344836 L8.46557421,9.98344836 L8.46948725,9.89012227 C8.52524812,8.56575271 8.99794377,7.61214401 9.87387856,7.05570923 C10.4242481,6.70138314 11.1090307,6.52177445 11.9080742,6.52177445 C12.9540307,6.52177445 13.837009,6.77592662 14.5321612,7.27718749 C15.236509,7.78510054 15.5937699,8.54579619 15.5937699,9.53814401 C15.5937699,10.0932092 15.4184655,10.6146223 15.0725525,11.0884918 Z" id="Shape"></path>
                        </g>
                    </g>
                </g>
            </g>
        </g>
    </g>
</svg>