<?xml version="1.0" encoding="UTF-8"?>
<svg width="34px" height="31px" viewBox="0 0 34 31" version="1.1" xmlns="http://www.w3.org/2000/svg" xmlns:xlink="http://www.w3.org/1999/xlink">
    <!-- Generator: Sketch 55.2 (78181) - https://sketchapp.com -->
    <title>Path</title>
    <desc>Created with Sketch.</desc>
    <g id="Latest-Screens" stroke="none" stroke-width="1" fill="none" fill-rule="evenodd">
        <g id="RFQ-Sent" transform="translate(-650.000000, -115.000000)" fill="#FFFFFF">
            <g id="Sent-for-approval" transform="translate(617.000000, 100.000000)">
                <g id="Group-38" transform="translate(33.000000, 15.000000)">
                    <path d="M33.8268921,0.124255661 C33.675544,-0.00651987832 33.4601601,-0.0368606045 33.2776072,0.0465513589 L0.294086825,15.1440166 C0.116514529,15.2253257 0.00216488167,15.39986 0,15.5927189 C-0.00210417182,15.7855778 0.108484642,15.9625153 0.284328988,16.0475294 L9.61861444,20.560387 C9.78978316,20.6431981 9.99388457,20.624473 10.1467573,20.5119219 L19.2222568,13.8295522 L12.0976131,21.0492432 C11.995969,21.1522815 11.9441305,21.2933708 11.9553114,21.4365631 L12.6646857,30.5376794 C12.6804406,30.7393501 12.8176602,30.9117816 13.0127153,30.9749664 C13.0648587,30.991789 13.1184251,31 13.1713817,31 C13.3166312,31 13.4579165,30.9386176 13.5562064,30.8264671 L18.5105446,25.1706753 L24.6351117,28.053545 C24.7680623,28.116129 24.9219515,28.1187325 25.0570365,28.0608548 C25.1921216,28.002877 25.2949854,27.8901256 25.339099,27.7517399 L33.9766139,0.650662254 C34.0369905,0.461408219 33.9781386,0.2550312 33.8268921,0.124255661 Z" id="Path"></path>
                </g>
            </g>
        </g>
    </g>
</svg>