<?xml version="1.0" encoding="UTF-8"?>
<svg width="13px" height="16px" viewBox="0 0 13 16" version="1.1" xmlns="http://www.w3.org/2000/svg" xmlns:xlink="http://www.w3.org/1999/xlink">
    <!-- Generator: Sketch 55.2 (78181) - https://sketchapp.com -->
    <title>Shape</title>
    <desc>Created with Sketch.</desc>
    <g id="Latest-Screens" stroke="none" stroke-width="1" fill="none" fill-rule="evenodd">
        <g id="Product-Page" transform="translate(-1147.000000, -161.000000)" fill="#878787" fill-rule="nonzero">
            <g id="Group-41" transform="translate(1147.000000, 158.000000)">
                <path d="M12.8021086,3.52888736 C12.6700269,3.33135558 12.492163,3.18690144 12.2689083,3.09526565 C12.1267239,3.03189103 11.9777095,3 11.8219363,3 L11.8219363,3 L1.17806364,3 C1.02236159,3 0.873489524,3.03174287 0.731269564,3.0951175 C0.507872528,3.1866792 0.330079792,3.33131854 0.198069219,3.5287392 C0.0660942185,3.72615986 0,3.94461897 0,4.1843758 L0,17.8156242 C0,18.0554551 0.0660942185,18.2738401 0.198069219,18.471446 C0.330079792,18.6688296 0.507872528,18.8134319 0.731269564,18.9049566 C0.873347233,18.9683312 1.02236159,19 1.17806364,19 C1.49640441,19 1.77725148,18.8836218 2.02106729,18.6511618 L6.50003557,14.167083 L10.9790038,18.6512729 C11.2160252,18.8765102 11.4970146,18.9893326 11.8219008,18.9893326 C11.9912272,18.9893326 12.140206,18.9613307 12.2688727,18.9049195 C12.4921275,18.8133949 12.6699913,18.6687926 12.8020731,18.4711497 C12.9340481,18.2738031 13,18.055381 13,17.8155872 L13,4.18452396 C13,3.94476713 12.9339413,3.72630802 12.8021086,3.52888736 Z M11.700064,17.4876022 L7.40397539,13.1941658 L6.50003557,12.2954388 L5.59616689,13.1941658 L1.30011383,17.4876022 L1.30011383,4.35375754 L11.700064,4.35375754 L11.700064,17.4876022 L11.700064,17.4876022 Z" id="Shape"></path>
            </g>
        </g>
    </g>
</svg>